<svg xmlns="http://www.w3.org/2000/svg" xmlns:xlink="http://www.w3.org/1999/xlink" width="14.875" height="14.875" viewBox="0 0 14.875 14.875">
  <metadata><?xpacket begin="﻿" id="W5M0MpCehiHzreSzNTczkc9d"?>
<x:xmpmeta xmlns:x="adobe:ns:meta/" x:xmptk="Adobe XMP Core 5.6-c142 79.160924, 2017/07/13-01:06:39        ">
   <rdf:RDF xmlns:rdf="http://www.w3.org/1999/02/22-rdf-syntax-ns#">
      <rdf:Description rdf:about=""/>
   </rdf:RDF>
</x:xmpmeta>
                                                                                                    
                                                                                                    
                                                                                                    
                                                                                                    
                                                                                                    
                                                                                                    
                                                                                                    
                                                                                                    
                                                                                                    
                                                                                                    
                                                                                                    
                                                                                                    
                                                                                                    
                                                                                                    
                                                                                                    
                                                                                                    
                                                                                                    
                                                                                                    
                                                                                                    
                                                                                                    
                           
<?xpacket end="w"?></metadata>
<defs>
    <style>
      .cls-1 {
        fill: #737373;
        fill-rule: evenodd;
        filter: url(#filter);
      }
    </style>
    <filter id="filter" x="547.344" y="36.219" width="14.875" height="14.875" filterUnits="userSpaceOnUse">
      <feFlood result="flood" flood-color="#7eb252"/>
      <feComposite result="composite" operator="in" in2="SourceGraphic"/>
      <feBlend result="blend" in2="SourceGraphic"/>
    </filter>
  </defs>
  <path id="телефон" class="cls-1" d="M549.826,36.22a2.233,2.233,0,0,1,1.862,1.022l1.588,1.588a1.724,1.724,0,0,1,.6.913,1.123,1.123,0,0,1,.037.475,2.087,2.087,0,0,1-.712,1.04l-0.529.548a2.084,2.084,0,0,0-.512.548,2.112,2.112,0,0,1,.183.311c0.133,0.2.293,0.389,0.438,0.584,0.159,0.215.388,0.391,0.548,0.6a8.2,8.2,0,0,0,1.533,1.5c0.078,0.059.14,0.16,0.219,0.219,0.219,0.164.426,0.32,0.657,0.474a0.9,0.9,0,0,0,.4.219,4.629,4.629,0,0,1,.638-0.638,3.163,3.163,0,0,1,1.442-1.114,1.126,1.126,0,0,1,.694.109,5.746,5.746,0,0,1,1.46,1.3l1.15,1.151a2.157,2.157,0,0,1,.53.584,3.281,3.281,0,0,1,.146.493,1.526,1.526,0,0,1-.037.657,3.723,3.723,0,0,1-1,1.15,3.436,3.436,0,0,1-.876.767,5.122,5.122,0,0,1-.986.292,4.4,4.4,0,0,1-1.825-.037l-0.31-.037a8.271,8.271,0,0,1-1-.292c-0.476-.207-0.946-0.412-1.387-0.657-0.25-.138-0.5-0.335-0.749-0.474a14.158,14.158,0,0,1-5.257-5.348c-0.128-.23-0.3-0.466-0.438-0.693a7.213,7.213,0,0,1-.438-0.968,5.708,5.708,0,0,1-.146-4.454,3.5,3.5,0,0,1,.712-0.766l0.785-.8a1.8,1.8,0,0,1,.31-0.182A1.17,1.17,0,0,0,549.826,36.22Zm0.11,0.8c-0.064.049-.156,0.063-0.22,0.11l-0.839.858a1.862,1.862,0,0,0-.438.474c-0.71,1.6.017,3.675,0.694,4.782,0.52,0.853,1.058,1.667,1.642,2.446,0.093,0.123.236,0.224,0.329,0.346a3.049,3.049,0,0,0,.566.6c0.067,0.051.1,0.15,0.164,0.2,0.269,0.215.494,0.489,0.767,0.694,0.319,0.241.624,0.5,0.949,0.73a19.571,19.571,0,0,0,1.953,1.169,5.447,5.447,0,0,0,3.778.73,3.682,3.682,0,0,0,.584-0.146,2.012,2.012,0,0,0,.584-0.493l0.877-.858a0.981,0.981,0,0,1,.073-0.128,1.26,1.26,0,0,0-.658-1.114c-0.115-.115-0.213-0.249-0.328-0.364-0.359-.359-0.736-0.7-1.1-1.059a2.273,2.273,0,0,0-.785-0.694,0.781,0.781,0,0,0-.676.366l-1.1,1.076a1.536,1.536,0,0,1-.456.42,2.348,2.348,0,0,0-.4-0.109,4.337,4.337,0,0,1-.693-0.4,13.388,13.388,0,0,1-2.9-2.774,3.9,3.9,0,0,1-1.058-1.807,5.3,5.3,0,0,0,.675-0.675c0.351-.351.714-0.684,1.041-1.059H553a0.712,0.712,0,0,0,.11-0.512A0.742,0.742,0,0,1,553,39.67a5.471,5.471,0,0,0-.493-0.493l-1.46-1.424A1.492,1.492,0,0,0,549.936,37.024Z" transform="translate(-547.344 -36.219)"/>
</svg>
